<svg id="visual" viewBox="0 0 900 600" width="900" height="600" xmlns="http://www.w3.org/2000/svg" xmlns:xlink="http://www.w3.org/1999/xlink" version="1.1"><rect x="0" y="0" width="900" height="600" fill="#d9529c"></rect><g transform="translate(481.54305114435465 298.6469119711712)"><path d="M268.6 -408C351 -309.8 422.8 -235.2 433 -152.7C443.2 -70.2 391.8 20.2 359.2 115.5C326.5 210.7 312.6 310.9 255.8 414.4C199.1 518 99.5 625 13.7 606.1C-72.1 587.2 -144.2 442.5 -226 347.1C-307.8 251.6 -399.3 205.5 -451.5 127.2C-503.7 48.9 -516.7 -61.6 -462.5 -126.1C-408.3 -190.6 -286.8 -209.1 -198.5 -305.4C-110.2 -401.7 -55.1 -575.8 19 -602C93.1 -628.1 186.1 -506.2 268.6 -408" fill="#a23e82"></path></g></svg>