<svg id="visual" viewBox="0 0 570 475" width="570" height="475" xmlns="http://www.w3.org/2000/svg" xmlns:xlink="http://www.w3.org/1999/xlink" version="1.1"><g><g transform="translate(275 53)"><path d="M2.6 1.8C0.5 5.2 -6.1 6.3 -7.3 3.4C-8.5 0.6 -4.3 -6.1 -0.9 -6.7C2.4 -7.2 4.7 -1.6 2.6 1.8Z" stroke="#afecef" fill="none" stroke-width="20"></path></g><g transform="translate(535 258)"><path d="M4 2.1C2.3 5.2 -3.8 5.4 -5.2 2.5C-6.6 -0.4 -3.3 -6.4 -0.2 -6.6C2.8 -6.7 5.6 -0.9 4 2.1Z" stroke="#afecef" fill="none" stroke-width="20"></path></g><g transform="translate(161 437)"><path d="M7.8 4.8C5.8 8 -3.2 7.5 -5.6 4.1C-8.1 0.6 -4 -5.7 0.4 -5.5C4.9 -5.2 9.8 1.6 7.8 4.8Z" stroke="#afecef" fill="none" stroke-width="20"></path></g><g transform="translate(547 40)"><path d="M3.6 2.1C2.6 3.9 -1.8 3.7 -3 1.9C-4.1 0 -2.1 -3.6 0.1 -3.6C2.3 -3.5 4.7 0.3 3.6 2.1Z" stroke="#afecef" fill="none" stroke-width="20"></path></g><g transform="translate(447 121)"><path d="M7.5 4.2C5.5 7.8 -3.3 7.4 -5.6 3.6C-8 -0.2 -4 -7.5 0.4 -7.2C4.8 -7 9.5 0.6 7.5 4.2Z" stroke="#afecef" fill="none" stroke-width="20"></path></g><g transform="translate(182 210)"><path d="M2.9 1.5C1.4 4.3 -3.8 4.7 -4.9 2.1C-6 -0.5 -3 -6.1 -0.4 -6.4C2.2 -6.6 4.4 -1.4 2.9 1.5Z" stroke="#afecef" fill="none" stroke-width="20"></path></g><g transform="translate(388 295)"><path d="M3.2 1.8C1.6 4.5 -3.9 5 -5.1 2.4C-6.2 -0.2 -3.1 -5.7 -0.4 -5.9C2.4 -6.1 4.8 -1 3.2 1.8Z" stroke="#afecef" fill="none" stroke-width="20"></path></g><g transform="translate(486 60)"><path d="M3.5 2.2C2.6 3.4 -1.1 3.1 -2.2 1.7C-3.2 0.3 -1.6 -2.2 0.3 -2C2.1 -1.9 4.3 0.9 3.5 2.2Z" stroke="#afecef" fill="none" stroke-width="20"></path></g><g transform="translate(315 204)"><path d="M3.1 1.8C1.9 3.8 -2.6 4 -3.7 2C-4.8 0 -2.4 -4.1 -0.1 -4.2C2.1 -4.2 4.3 -0.3 3.1 1.8Z" stroke="#afecef" fill="none" stroke-width="20"></path></g><g transform="translate(488 247)"><path d="M4.9 2.6C3.2 5.9 -3.6 6 -5.3 2.8C-7 -0.4 -3.5 -6.9 -0.1 -6.9C3.3 -7 6.7 -0.6 4.9 2.6Z" stroke="#afecef" fill="none" stroke-width="20"></path></g><g transform="translate(348 398)"><path d="M3.9 2.3C3.2 3.6 -0.7 3.1 -1.9 1.6C-3.1 0 -1.5 -2.6 0.4 -2.4C2.3 -2.2 4.7 1 3.9 2.3Z" stroke="#afecef" fill="none" stroke-width="20"></path></g><g transform="translate(98 293)"><path d="M3.6 1.5C2.5 4 -2.1 4 -3.3 1.4C-4.5 -1.1 -2.2 -6.2 0.1 -6.1C2.4 -6.1 4.8 -1 3.6 1.5Z" stroke="#afecef" fill="none" stroke-width="20"></path></g><g transform="translate(417 166)"><path d="M3.3 1.4C2.2 3.8 -2.1 3.8 -3.2 1.3C-4.3 -1.1 -2.2 -6 0 -6C2.2 -6 4.4 -1.1 3.3 1.4Z" stroke="#afecef" fill="none" stroke-width="20"></path></g><g transform="translate(196 148)"><path d="M4.4 1.4C3.7 3.7 -0.1 3 -1.4 0.3C-2.6 -2.3 -1.3 -6.9 0.6 -6.6C2.5 -6.3 5 -1 4.4 1.4Z" stroke="#afecef" fill="none" stroke-width="20"></path></g><g transform="translate(358 72)"><path d="M3.2 1.7C1.3 5.1 -5 5.8 -6.2 2.8C-7.5 -0.2 -3.7 -7 -0.6 -7.3C2.5 -7.7 5.1 -1.6 3.2 1.7Z" stroke="#afecef" fill="none" stroke-width="20"></path></g><g transform="translate(368 145)"><path d="M7.4 5C5.8 7.1 -2.1 6.4 -4.3 3.9C-6.6 1.4 -3.3 -2.9 0.6 -2.6C4.5 -2.2 9.1 2.8 7.4 5Z" stroke="#afecef" fill="none" stroke-width="20"></path></g><g transform="translate(72 385)"><path d="M5.8 3.1C4.8 5.2 -0.8 4.4 -2.5 2C-4.3 -0.5 -2.1 -4.7 0.7 -4.3C3.5 -4 6.9 1 5.8 3.1Z" stroke="#afecef" fill="none" stroke-width="20"></path></g><g transform="translate(497 317)"><path d="M8.3 3.9C6.7 7.6 -1.6 6.7 -4.1 2.4C-6.5 -1.9 -3.3 -9.4 0.8 -8.9C5 -8.5 9.9 0.1 8.3 3.9Z" stroke="#afecef" fill="none" stroke-width="20"></path></g><g transform="translate(404 52)"><path d="M4.5 2C3.2 4.9 -2.5 4.8 -3.9 1.8C-5.4 -1.2 -2.7 -7.1 0.1 -7C2.9 -7 5.8 -1 4.5 2Z" stroke="#afecef" fill="none" stroke-width="20"></path></g><g transform="translate(261 284)"><path d="M4.7 2.3C3.9 4.1 -0.5 3.5 -1.9 1.4C-3.3 -0.8 -1.6 -4.3 0.6 -4C2.8 -3.7 5.5 0.6 4.7 2.3Z" stroke="#afecef" fill="none" stroke-width="20"></path></g><g transform="translate(262 231)"><path d="M6.9 4.1C5.3 6.8 -2.2 6.2 -4.3 3.2C-6.4 0.1 -3.2 -5.3 0.5 -5C4.3 -4.7 8.6 1.4 6.9 4.1Z" stroke="#afecef" fill="none" stroke-width="20"></path></g><g transform="translate(223 357)"><path d="M6.8 4.4C4.8 7.5 -3.7 7.3 -5.9 4.1C-8.1 1 -4.1 -5 0.2 -4.9C4.4 -4.8 8.8 1.4 6.8 4.4Z" stroke="#afecef" fill="none" stroke-width="20"></path></g><g transform="translate(483 377)"><path d="M8 4.7C7.1 6.2 0.7 4.7 -1.5 2.4C-3.7 0.1 -1.9 -3 1.3 -2.3C4.5 -1.5 8.9 3.1 8 4.7Z" stroke="#afecef" fill="none" stroke-width="20"></path></g><g transform="translate(131 64)"><path d="M1.7 1.1C0.4 3.3 -3.9 4 -4.6 2.1C-5.4 0.2 -2.7 -4.2 -0.6 -4.5C1.5 -4.9 3.1 -1.1 1.7 1.1Z" stroke="#afecef" fill="none" stroke-width="20"></path></g><g transform="translate(454 197)"><path d="M7 4.4C5.4 6.8 -2 6.1 -4.2 3.4C-6.3 0.7 -3.2 -4.1 0.6 -3.8C4.3 -3.5 8.6 2 7 4.4Z" stroke="#afecef" fill="none" stroke-width="20"></path></g><g transform="translate(32 66)"><path d="M2.9 0.9C1.8 3.6 -2.5 3.7 -3.5 1C-4.5 -1.6 -2.2 -7.1 -0.1 -7.2C2 -7.3 4 -1.9 2.9 0.9Z" stroke="#afecef" fill="none" stroke-width="20"></path></g><g transform="translate(154 264)"><path d="M5 1.7C4.2 4.2 -0.2 3.4 -1.6 0.5C-3 -2.4 -1.5 -7.3 0.7 -6.9C2.9 -6.6 5.7 -0.8 5 1.7Z" stroke="#afecef" fill="none" stroke-width="20"></path></g><g transform="translate(56 154)"><path d="M4.1 2.3C2.8 4.7 -2.6 4.6 -3.9 2.2C-5.3 -0.1 -2.7 -4.9 0 -4.9C2.7 -4.8 5.5 -0.1 4.1 2.3Z" stroke="#afecef" fill="none" stroke-width="20"></path></g><g transform="translate(45 230)"><path d="M5.4 2.8C4.7 4.2 0.4 3.3 -1.1 1.4C-2.6 -0.6 -1.3 -3.4 0.9 -2.9C3 -2.4 6 1.4 5.4 2.8Z" stroke="#afecef" fill="none" stroke-width="20"></path></g><g transform="translate(116 154)"><path d="M3.2 1.4C2.2 3.6 -2 3.6 -3.1 1.4C-4.1 -0.9 -2.1 -5.3 0 -5.3C2.1 -5.2 4.3 -0.8 3.2 1.4Z" stroke="#afecef" fill="none" stroke-width="20"></path></g><g transform="translate(83 437)"><path d="M1.7 1.6C-0.1 4.2 -5.6 5.3 -6.5 3.3C-7.4 1.3 -3.7 -3.9 -1 -4.5C1.8 -5 3.6 -1 1.7 1.6Z" stroke="#afecef" fill="none" stroke-width="20"></path></g><g transform="translate(432 243)"><path d="M1.7 1.9C0.1 3.6 -4.6 4.5 -5.4 3.2C-6.2 1.9 -3.1 -1.5 -0.7 -1.9C1.6 -2.3 3.2 0.2 1.7 1.9Z" stroke="#afecef" fill="none" stroke-width="20"></path></g><g transform="translate(171 360)"><path d="M6.6 3.4C5.5 5.8 -0.6 4.8 -2.5 2C-4.5 -0.9 -2.2 -5.6 0.8 -5.2C3.9 -4.7 7.7 1 6.6 3.4Z" stroke="#afecef" fill="none" stroke-width="20"></path></g></g></svg>