<svg id="visual" viewBox="0 0 570 475" width="570" height="475" xmlns="http://www.w3.org/2000/svg" xmlns:xlink="http://www.w3.org/1999/xlink" version="1.1"><g><g transform="translate(126 194)"><path d="M22.8 -18.6C27.7 -12 28.7 -2.6 27.2 7C25.6 16.6 21.6 26.4 14.5 29.7C7.4 33 -2.7 29.7 -11.4 25C-20.2 20.3 -27.7 14.1 -31.1 5.4C-34.5 -3.4 -33.8 -14.9 -27.9 -21.8C-22 -28.7 -11 -31 -1.1 -30.1C8.9 -29.3 17.8 -25.3 22.8 -18.6Z" stroke="#9fd8e5" fill="none" stroke-width="20"></path></g><g transform="translate(424 119)"><path d="M19.3 -16.6C23.8 -9.7 25.4 -1.8 23.8 5.5C22.2 12.9 17.4 19.5 10.4 23.7C3.5 27.8 -5.7 29.4 -11.6 25.8C-17.4 22.3 -19.9 13.7 -21.6 5.3C-23.2 -3.2 -24 -11.5 -20.3 -18.2C-16.5 -24.9 -8.3 -30 -0.4 -29.6C7.4 -29.3 14.8 -23.5 19.3 -16.6Z" stroke="#9fd8e5" fill="none" stroke-width="20"></path></g><g transform="translate(47 88)"><path d="M14.3 -11.4C18.4 -6.2 21.6 -0.3 20.5 4.6C19.3 9.5 13.8 13.3 7.9 16C2 18.8 -4.3 20.4 -10.1 18.5C-15.9 16.7 -21.2 11.4 -22.2 5.5C-23.2 -0.3 -19.8 -6.7 -15.3 -11.9C-10.9 -17.1 -5.5 -21.2 -0.2 -21.1C5.1 -20.9 10.2 -16.5 14.3 -11.4Z" stroke="#9fd8e5" fill="none" stroke-width="20"></path></g><g transform="translate(518 282)"><path d="M6.5 -5C8.2 -3 9.3 -0.3 8.9 2.4C8.6 5.1 6.8 7.9 4.5 8.8C2.1 9.7 -0.8 8.8 -3 7.3C-5.1 5.8 -6.5 3.8 -7.4 1.3C-8.3 -1.3 -8.8 -4.4 -7.5 -6.2C-6.2 -8.1 -3.1 -8.8 -0.4 -8.5C2.4 -8.2 4.8 -7 6.5 -5Z" stroke="#9fd8e5" fill="none" stroke-width="20"></path></g><g transform="translate(377 288)"><path d="M19 -15.9C24 -9 26.9 -1.1 26.2 7.7C25.6 16.4 21.4 26.1 14 30C6.6 33.9 -4 32.1 -11.2 27.1C-18.5 22.2 -22.4 14.1 -24.2 5.8C-25.9 -2.6 -25.3 -11.2 -20.9 -18C-16.5 -24.8 -8.3 -29.8 -0.6 -29.3C7 -28.8 14.1 -22.8 19 -15.9Z" stroke="#9fd8e5" fill="none" stroke-width="20"></path></g><g transform="translate(505 158)"><path d="M6.7 -6C8.1 -3.7 8.2 -0.9 7.5 1.6C6.9 4.1 5.5 6.3 3.3 7.6C1.1 9 -1.9 9.6 -4.2 8.5C-6.5 7.5 -8.2 4.9 -8.5 2.3C-8.8 -0.3 -7.8 -2.9 -6.2 -5.2C-4.5 -7.6 -2.3 -9.8 0.2 -9.9C2.7 -10.1 5.4 -8.3 6.7 -6Z" stroke="#9fd8e5" fill="none" stroke-width="20"></path></g><g transform="translate(525 401)"><path d="M8.4 -6.5C10.4 -4.2 11.2 -0.7 10.4 2.2C9.6 5.1 7.2 7.5 4.5 8.4C1.8 9.4 -1.2 9 -3.5 7.7C-5.8 6.4 -7.4 4.3 -8.4 1.5C-9.4 -1.3 -9.7 -4.6 -8.1 -6.8C-6.6 -8.9 -3.3 -9.9 -0.1 -9.8C3.2 -9.8 6.4 -8.7 8.4 -6.5Z" stroke="#9fd8e5" fill="none" stroke-width="20"></path></g><g transform="translate(246 235)"><path d="M22.5 -17.2C27.8 -11.3 29.9 -2 27.7 5.8C25.5 13.7 19.1 20.1 11.6 23.4C4.2 26.6 -4.4 26.8 -10 23.2C-15.5 19.6 -18 12.1 -19.9 4.4C-21.7 -3.3 -22.9 -11.3 -19.5 -16.7C-16.1 -22.2 -8 -25.2 0.3 -25.4C8.6 -25.6 17.2 -23.1 22.5 -17.2Z" stroke="#9fd8e5" fill="none" stroke-width="20"></path></g><g transform="translate(51 306)"><path d="M15.8 -13.5C19.7 -7.8 21.4 -1.3 19.9 4.4C18.5 10 13.9 14.7 8 18C2.2 21.4 -5 23.4 -9.7 20.9C-14.4 18.3 -16.6 11.3 -17.6 4.7C-18.5 -1.9 -18.3 -8.1 -15.1 -13.7C-12 -19.2 -6 -24 0 -24C6 -24 12 -19.2 15.8 -13.5Z" stroke="#9fd8e5" fill="none" stroke-width="20"></path></g><g transform="translate(289 142)"><path d="M26.4 -22.3C31.9 -14.2 32.5 -3.3 29.8 6.1C27.1 15.5 21.1 23.4 12.7 28.2C4.3 33 -6.6 34.6 -15.1 30.7C-23.7 26.9 -29.9 17.6 -30.9 8.4C-31.9 -0.8 -27.7 -9.7 -21.7 -18.1C-15.7 -26.4 -7.8 -34 1.3 -35C10.5 -36.1 20.9 -30.5 26.4 -22.3Z" stroke="#9fd8e5" fill="none" stroke-width="20"></path></g><g transform="translate(180 95)"><path d="M11.4 -8.7C14.2 -5.5 15.5 -0.8 14.5 3.1C13.4 7.1 10 10.3 6.3 11.4C2.6 12.6 -1.3 11.7 -5.2 10.1C-9.2 8.5 -13.1 6.2 -14.1 2.9C-15.1 -0.4 -13.1 -4.6 -10.2 -7.8C-7.4 -10.9 -3.7 -13 0.3 -13.2C4.3 -13.4 8.5 -11.8 11.4 -8.7Z" stroke="#9fd8e5" fill="none" stroke-width="20"></path></g><g transform="translate(183 359)"><path d="M19.9 -15.9C24.9 -9.6 27.5 -1.4 25.7 5.6C23.8 12.5 17.7 18.2 10.4 21.6C3.2 25.1 -5 26.4 -10.9 23.3C-16.8 20.2 -20.3 12.8 -22.2 5C-24 -2.8 -24.1 -11.1 -20.1 -17.1C-16.1 -23.2 -8.1 -27.1 -0.3 -26.9C7.5 -26.6 14.9 -22.2 19.9 -15.9Z" stroke="#9fd8e5" fill="none" stroke-width="20"></path></g><g transform="translate(430 413)"><path d="M8.4 -6.2C10.4 -4.2 11.2 -0.7 10.6 2.7C10.1 6 8.1 9.3 5.4 10.3C2.7 11.2 -0.7 9.9 -3.9 8.3C-7.1 6.7 -10.1 4.8 -10.6 2.5C-11.1 0.1 -9 -2.7 -6.8 -4.8C-4.6 -6.8 -2.3 -8.1 0.4 -8.5C3.2 -8.8 6.4 -8.2 8.4 -6.2Z" stroke="#9fd8e5" fill="none" stroke-width="20"></path></g><g transform="translate(303 429)"><path d="M9 -6.7C11.5 -4 13.4 -0.3 12.9 3.3C12.4 7 9.5 10.4 5.8 12.3C2.2 14.1 -2.4 14.2 -5.7 12.4C-9 10.6 -11 6.8 -11.9 2.7C-12.8 -1.3 -12.6 -5.6 -10.4 -8.2C-8.3 -10.9 -4.1 -11.9 -0.5 -11.6C3.2 -11.2 6.4 -9.5 9 -6.7Z" stroke="#9fd8e5" fill="none" stroke-width="20"></path></g><g transform="translate(307 47)"><path d="M20.3 -16.6C26.2 -8.9 30.7 -0.4 29.4 7.3C28.1 15.1 21.1 22.2 12.8 25.9C4.5 29.7 -5.1 30.2 -13.5 26.7C-21.9 23.2 -29 15.7 -30.2 7.7C-31.3 -0.3 -26.6 -8.9 -20.6 -16.6C-14.5 -24.4 -7.3 -31.5 0 -31.5C7.2 -31.5 14.5 -24.4 20.3 -16.6Z" stroke="#9fd8e5" fill="none" stroke-width="20"></path></g><g transform="translate(100 406)"><path d="M14.2 -12.3C17.6 -7 19 -1.2 17.8 4.1C16.6 9.4 12.9 14.2 7.5 17.5C2.1 20.9 -4.9 22.9 -10.5 20.7C-16 18.4 -20.1 12 -20.9 5.5C-21.8 -0.9 -19.5 -7.3 -15.5 -12.7C-11.5 -18 -5.7 -22.4 -0.2 -22.2C5.4 -22.1 10.8 -17.5 14.2 -12.3Z" stroke="#9fd8e5" fill="none" stroke-width="20"></path></g><g transform="translate(269 330)"><path d="M5.5 -4.5C6.8 -2.6 7.5 -0.4 7.1 1.7C6.7 3.8 5.2 5.8 3.1 7.1C0.9 8.4 -1.9 9 -4 8.1C-6.2 7.1 -7.8 4.6 -8.2 2.2C-8.5 -0.3 -7.6 -2.8 -6 -4.7C-4.5 -6.6 -2.2 -7.9 -0.1 -7.8C2 -7.7 4.1 -6.3 5.5 -4.5Z" stroke="#9fd8e5" fill="none" stroke-width="20"></path></g><g transform="translate(425 209)"><path d="M13.7 -10.4C17.6 -6.1 20.4 -0.4 19.1 4C17.8 8.4 12.4 11.6 6.8 14.3C1.2 17.1 -4.7 19.6 -9.2 17.9C-13.7 16.2 -16.7 10.4 -17.8 4.5C-18.8 -1.4 -17.8 -7.4 -14.5 -11.6C-11.2 -15.8 -5.6 -18.3 -0.3 -18C4.9 -17.8 9.9 -14.8 13.7 -10.4Z" stroke="#9fd8e5" fill="none" stroke-width="20"></path></g><g transform="translate(521 58)"><path d="M22.9 -17.1C28.2 -11.5 30.2 -2.1 28.1 6.3C26.1 14.6 20.1 22 12.6 25.2C5 28.5 -4 27.8 -12.2 24.3C-20.5 20.8 -27.9 14.4 -29.9 6.5C-31.9 -1.4 -28.6 -10.8 -22.7 -16.5C-16.9 -22.3 -8.4 -24.3 0.2 -24.4C8.8 -24.6 17.5 -22.8 22.9 -17.1Z" stroke="#9fd8e5" fill="none" stroke-width="20"></path></g></g></svg>