<svg id="visual" viewBox="0 0 570 475" width="570" height="475" xmlns="http://www.w3.org/2000/svg" xmlns:xlink="http://www.w3.org/1999/xlink" version="1.1"><g fill="#99c7c2"><circle r="31" cx="81" cy="153"></circle><circle r="2" cx="159" cy="420"></circle><circle r="24" cx="485" cy="135"></circle><circle r="17" cx="88" cy="228"></circle><circle r="3" cx="407" cy="420"></circle><circle r="1" cx="259" cy="377"></circle><circle r="12" cx="482" cy="42"></circle><circle r="20" cx="317" cy="83"></circle><circle r="25" cx="312" cy="412"></circle><circle r="8" cx="402" cy="81"></circle><circle r="18" cx="288" cy="246"></circle><circle r="10" cx="63" cy="291"></circle><circle r="5" cx="159" cy="141"></circle><circle r="5" cx="538" cy="420"></circle><circle r="22" cx="486" cy="302"></circle><circle r="3" cx="231" cy="33"></circle><circle r="14" cx="379" cy="181"></circle><circle r="9" cx="34" cy="40"></circle><circle r="6" cx="277" cy="147"></circle><circle r="1" cx="477" cy="198"></circle><circle r="20" cx="65" cy="400"></circle><circle r="25" cx="480" cy="396"></circle><circle r="24" cx="219" cy="276"></circle><circle r="2" cx="430" cy="338"></circle><circle r="13" cx="172" cy="78"></circle><circle r="27" cx="99" cy="76"></circle><circle r="1" cx="376" cy="289"></circle><circle r="6" cx="222" cy="178"></circle><circle r="14" cx="197" cy="371"></circle><circle r="20" cx="312" cy="309"></circle><circle r="16" cx="152" cy="242"></circle><circle r="27" cx="147" cy="307"></circle><circle r="11" cx="411" cy="233"></circle><circle r="3" cx="539" cy="206"></circle><circle r="9" cx="353" cy="362"></circle><circle r="13" cx="540" cy="351"></circle></g></svg>