<svg id="visual" viewBox="0 0 570 475" width="570" height="475" xmlns="http://www.w3.org/2000/svg" xmlns:xlink="http://www.w3.org/1999/xlink" version="1.1"><g fill="#a4e8dd"><circle r="21" cx="55" cy="314"></circle><circle r="4" cx="498" cy="206"></circle><circle r="8" cx="52" cy="177"></circle><circle r="5" cx="231" cy="316"></circle><circle r="5" cx="183" cy="261"></circle><circle r="10" cx="260" cy="155"></circle><circle r="14" cx="479" cy="444"></circle><circle r="12" cx="475" cy="140"></circle><circle r="10" cx="404" cy="287"></circle><circle r="3" cx="155" cy="86"></circle><circle r="10" cx="474" cy="62"></circle><circle r="16" cx="390" cy="398"></circle><circle r="15" cx="42" cy="80"></circle><circle r="14" cx="123" cy="292"></circle><circle r="5" cx="114" cy="392"></circle><circle r="19" cx="534" cy="387"></circle><circle r="8" cx="21" cy="206"></circle><circle r="17" cx="298" cy="365"></circle><circle r="13" cx="507" cy="113"></circle><circle r="18" cx="452" cy="268"></circle><circle r="17" cx="489" cy="341"></circle><circle r="14" cx="156" cy="417"></circle><circle r="9" cx="352" cy="54"></circle><circle r="10" cx="362" cy="247"></circle><circle r="7" cx="240" cy="205"></circle><circle r="19" cx="117" cy="144"></circle><circle r="17" cx="349" cy="323"></circle><circle r="18" cx="394" cy="49"></circle><circle r="12" cx="122" cy="26"></circle><circle r="8" cx="523" cy="316"></circle><circle r="4" cx="223" cy="429"></circle><circle r="13" cx="517" cy="37"></circle><circle r="17" cx="284" cy="291"></circle><circle r="11" cx="433" cy="186"></circle><circle r="9" cx="268" cy="76"></circle><circle r="18" cx="382" cy="156"></circle><circle r="13" cx="282" cy="451"></circle><circle r="13" cx="424" cy="83"></circle><circle r="18" cx="185" cy="182"></circle><circle r="16" cx="202" cy="89"></circle><circle r="9" cx="35" cy="448"></circle><circle r="15" cx="213" cy="144"></circle><circle r="17" cx="401" cy="348"></circle><circle r="4" cx="138" cy="193"></circle><circle r="6" cx="354" cy="428"></circle><circle r="15" cx="55" cy="368"></circle><circle r="10" cx="449" cy="382"></circle><circle r="16" cx="327" cy="154"></circle><circle r="14" cx="421" cy="230"></circle><circle r="9" cx="124" cy="446"></circle><circle r="18" cx="395" cy="440"></circle><circle r="11" cx="283" cy="115"></circle><circle r="14" cx="63" cy="249"></circle><circle r="13" cx="308" cy="241"></circle></g></svg>