<svg id="visual" viewBox="0 0 1080 533" width="1080" height="533" xmlns="http://www.w3.org/2000/svg" xmlns:xlink="http://www.w3.org/1999/xlink" version="1.1"><path d="M0 102L36 95.8C72 89.7 144 77.3 216 71.2C288 65 360 65 432 68.5C504 72 576 79 648 80.8C720 82.7 792 79.3 864 79.3C936 79.3 1008 82.7 1044 84.3L1080 86L1080 0L1044 0C1008 0 936 0 864 0C792 0 720 0 648 0C576 0 504 0 432 0C360 0 288 0 216 0C144 0 72 0 36 0L0 0Z" fill="#d6f9f6"></path><path d="M0 209L36 213.5C72 218 144 227 216 227C288 227 360 218 432 226.8C504 235.7 576 262.3 648 259.7C720 257 792 225 864 214.3C936 203.7 1008 214.3 1044 219.7L1080 225L1080 84L1044 82.3C1008 80.7 936 77.3 864 77.3C792 77.3 720 80.7 648 78.8C576 77 504 70 432 66.5C360 63 288 63 216 69.2C144 75.3 72 87.7 36 93.8L0 100Z" fill="#ccf8f3"></path><path d="M0 417L36 412.5C72 408 144 399 216 391C288 383 360 376 432 377.8C504 379.7 576 390.3 648 397.3C720 404.3 792 407.7 864 402.3C936 397 1008 383 1044 376L1080 369L1080 223L1044 217.7C1008 212.3 936 201.7 864 212.3C792 223 720 255 648 257.7C576 260.3 504 233.7 432 224.8C360 216 288 225 216 225C144 225 72 216 36 211.5L0 207Z" fill="#c2f6f0"></path><path d="M0 486L36 483.3C72 480.7 144 475.3 216 476.2C288 477 360 484 432 484C504 484 576 477 648 472.7C720 468.3 792 466.7 864 471.2C936 475.7 1008 486.3 1044 491.7L1080 497L1080 367L1044 374C1008 381 936 395 864 400.3C792 405.7 720 402.3 648 395.3C576 388.3 504 377.7 432 375.8C360 374 288 381 216 389C144 397 72 406 36 410.5L0 415Z" fill="#b7f5ed"></path><path d="M0 534L36 534C72 534 144 534 216 534C288 534 360 534 432 534C504 534 576 534 648 534C720 534 792 534 864 534C936 534 1008 534 1044 534L1080 534L1080 495L1044 489.7C1008 484.3 936 473.7 864 469.2C792 464.7 720 466.3 648 470.7C576 475 504 482 432 482C360 482 288 475 216 474.2C144 473.3 72 478.7 36 481.3L0 484Z" fill="#abf3ea"></path></svg>