<svg id="visual" viewBox="0 0 1200 310" width="1200" height="310" xmlns="http://www.w3.org/2000/svg" xmlns:xlink="http://www.w3.org/1999/xlink" version="1.1"><path d="M0 54L50 62.2C100 70.3 200 86.7 300 94.8C400 103 500 103 600 101.5C700 100 800 97 900 94.5C1000 92 1100 90 1150 89L1200 88L1200 0L1150 0C1100 0 1000 0 900 0C800 0 700 0 600 0C500 0 400 0 300 0C200 0 100 0 50 0L0 0Z" fill="#f8eef5"></path><path d="M0 94L50 101.2C100 108.3 200 122.7 300 132C400 141.3 500 145.7 600 145.7C700 145.7 800 141.3 900 138.7C1000 136 1100 135 1150 134.5L1200 134L1200 86L1150 87C1100 88 1000 90 900 92.5C800 95 700 98 600 99.5C500 101 400 101 300 92.8C200 84.7 100 68.3 50 60.2L0 52Z" fill="#f6e9f3"></path><path d="M0 144L50 148C100 152 200 160 300 168.7C400 177.3 500 186.7 600 190.3C700 194 800 192 900 187.3C1000 182.7 1100 175.3 1150 171.7L1200 168L1200 132L1150 132.5C1100 133 1000 134 900 136.7C800 139.3 700 143.7 600 143.7C500 143.7 400 139.3 300 130C200 120.7 100 106.3 50 99.2L0 92Z" fill="#f5e5f0"></path><path d="M0 249L50 249.5C100 250 200 251 300 255.2C400 259.3 500 266.7 600 269.3C700 272 800 270 900 266.8C1000 263.7 1100 259.3 1150 257.2L1200 255L1200 166L1150 169.7C1100 173.3 1000 180.7 900 185.3C800 190 700 192 600 188.3C500 184.7 400 175.3 300 166.7C200 158 100 150 50 146L0 142Z" fill="#f1d9e9"></path><path d="M0 311L50 311C100 311 200 311 300 311C400 311 500 311 600 311C700 311 800 311 900 311C1000 311 1100 311 1150 311L1200 311L1200 253L1150 255.2C1100 257.3 1000 261.7 900 264.8C800 268 700 270 600 267.3C500 264.7 400 257.3 300 253.2C200 249 100 248 50 247.5L0 247Z" fill="#eccee3"></path></svg>