<svg id="visual" viewBox="0 0 570 475" width="570" height="475" xmlns="http://www.w3.org/2000/svg" xmlns:xlink="http://www.w3.org/1999/xlink" version="1.1"><g><g transform="translate(259 182)"><path d="M0 -32.4L30.8 -10L19 26.2L-19 26.2L-30.8 -10Z" fill="#f6b8d8"></path></g><g transform="translate(143 315)"><path d="M0 -29L27.6 -9L17 23.5L-17 23.5L-27.6 -9Z" fill="#f6b8d8"></path></g><g transform="translate(361 245)"><path d="M0 -29L27.6 -9L17 23.5L-17 23.5L-27.6 -9Z" fill="#f6b8d8"></path></g><g transform="translate(330 88)"><path d="M0 -14L13.3 -4.3L8.2 11.3L-8.2 11.3L-13.3 -4.3Z" fill="#f6b8d8"></path></g><g transform="translate(454 401)"><path d="M0 -25L23.8 -7.7L14.7 20.2L-14.7 20.2L-23.8 -7.7Z" fill="#f6b8d8"></path></g><g transform="translate(533 40)"><path d="M0 -20L19 -6.2L11.8 16.2L-11.8 16.2L-19 -6.2Z" fill="#f6b8d8"></path></g><g transform="translate(104 413)"><path d="M0 -17L16.2 -5.3L10 13.8L-10 13.8L-16.2 -5.3Z" fill="#f6b8d8"></path></g><g transform="translate(139 133)"><path d="M0 -31L29.5 -9.6L18.2 25.1L-18.2 25.1L-29.5 -9.6Z" fill="#f6b8d8"></path></g><g transform="translate(276 301)"><path d="M0 -4L3.8 -1.2L2.4 3.2L-2.4 3.2L-3.8 -1.2Z" fill="#f6b8d8"></path></g><g transform="translate(395 130)"><path d="M0 -20L19 -6.2L11.8 16.2L-11.8 16.2L-19 -6.2Z" fill="#f6b8d8"></path></g><g transform="translate(326 168)"><path d="M0 -11L10.5 -3.4L6.5 8.9L-6.5 8.9L-10.5 -3.4Z" fill="#f6b8d8"></path></g><g transform="translate(364 331)"><path d="M0 -8L7.6 -2.5L4.7 6.5L-4.7 6.5L-7.6 -2.5Z" fill="#f6b8d8"></path></g><g transform="translate(471 252)"><path d="M0 -16L15.2 -4.9L9.4 12.9L-9.4 12.9L-15.2 -4.9Z" fill="#f6b8d8"></path></g><g transform="translate(170 64)"><path d="M0 -16L15.2 -4.9L9.4 12.9L-9.4 12.9L-15.2 -4.9Z" fill="#f6b8d8"></path></g><g transform="translate(274 38)"><path d="M0 -11L10.5 -3.4L6.5 8.9L-6.5 8.9L-10.5 -3.4Z" fill="#f6b8d8"></path></g><g transform="translate(200 284)"><path d="M0 -20L19 -6.2L11.8 16.2L-11.8 16.2L-19 -6.2Z" fill="#f6b8d8"></path></g><g transform="translate(44 123)"><path d="M0 -14L13.3 -4.3L8.2 11.3L-8.2 11.3L-13.3 -4.3Z" fill="#f6b8d8"></path></g><g transform="translate(536 408)"><path d="M0 -19L18.1 -5.9L11.2 15.4L-11.2 15.4L-18.1 -5.9Z" fill="#f6b8d8"></path></g><g transform="translate(100 192)"><path d="M0 -20L19 -6.2L11.8 16.2L-11.8 16.2L-19 -6.2Z" fill="#f6b8d8"></path></g><g transform="translate(529 122)"><path d="M0 -31L29.5 -9.6L18.2 25.1L-18.2 25.1L-29.5 -9.6Z" fill="#f6b8d8"></path></g><g transform="translate(430 313)"><path d="M0 -7L6.7 -2.2L4.1 5.7L-4.1 5.7L-6.7 -2.2Z" fill="#f6b8d8"></path></g><g transform="translate(78 348)"><path d="M0 -20L19 -6.2L11.8 16.2L-11.8 16.2L-19 -6.2Z" fill="#f6b8d8"></path></g><g transform="translate(505 191)"><path d="M0 -31L29.5 -9.6L18.2 25.1L-18.2 25.1L-29.5 -9.6Z" fill="#f6b8d8"></path></g><g transform="translate(98 266)"><path d="M0 -4L3.8 -1.2L2.4 3.2L-2.4 3.2L-3.8 -1.2Z" fill="#f6b8d8"></path></g><g transform="translate(262 430)"><path d="M0 -6L5.7 -1.9L3.5 4.9L-3.5 4.9L-5.7 -1.9Z" fill="#f6b8d8"></path></g><g transform="translate(165 218)"><path d="M0 -24L22.8 -7.4L14.1 19.4L-14.1 19.4L-22.8 -7.4Z" fill="#f6b8d8"></path></g><g transform="translate(425 58)"><path d="M0 -10L9.5 -3.1L5.9 8.1L-5.9 8.1L-9.5 -3.1Z" fill="#f6b8d8"></path></g></g></svg>