<svg id="visual" viewBox="0 0 570 475" width="570" height="475" xmlns="http://www.w3.org/2000/svg" xmlns:xlink="http://www.w3.org/1999/xlink" version="1.1"><g><g transform="translate(103 200)"><path d="M0 -34.4L34.4 0L0 34.4L-34.4 0Z" fill="#e5bbd7"></path></g><g transform="translate(369 256)"><path d="M0 -22L22 0L0 22L-22 0Z" fill="#e5bbd7"></path></g><g transform="translate(101 299)"><path d="M0 -24L24 0L0 24L-24 0Z" fill="#e5bbd7"></path></g><g transform="translate(200 293)"><path d="M0 -22L22 0L0 22L-22 0Z" fill="#e5bbd7"></path></g><g transform="translate(321 98)"><path d="M0 -14L14 0L0 14L-14 0Z" fill="#e5bbd7"></path></g><g transform="translate(509 332)"><path d="M0 -27L27 0L0 27L-27 0Z" fill="#e5bbd7"></path></g><g transform="translate(62 117)"><path d="M0 -21L21 0L0 21L-21 0Z" fill="#e5bbd7"></path></g><g transform="translate(244 440)"><path d="M0 -27L27 0L0 27L-27 0Z" fill="#e5bbd7"></path></g><g transform="translate(327 403)"><path d="M0 -32L32 0L0 32L-32 0Z" fill="#e5bbd7"></path></g><g transform="translate(405 109)"><path d="M0 -31L31 0L0 31L-31 0Z" fill="#e5bbd7"></path></g><g transform="translate(402 334)"><path d="M0 -8L8 0L0 8L-8 0Z" fill="#e5bbd7"></path></g><g transform="translate(103 59)"><path d="M0 -17L17 0L0 17L-17 0Z" fill="#e5bbd7"></path></g><g transform="translate(436 36)"><path d="M0 -31L31 0L0 31L-31 0Z" fill="#e5bbd7"></path></g><g transform="translate(238 179)"><path d="M0 -11L11 0L0 11L-11 0Z" fill="#e5bbd7"></path></g><g transform="translate(530 263)"><path d="M0 -14L14 0L0 14L-14 0Z" fill="#e5bbd7"></path></g><g transform="translate(443 398)"><path d="M0 -14L14 0L0 14L-14 0Z" fill="#e5bbd7"></path></g><g transform="translate(78 410)"><path d="M0 -31L31 0L0 31L-31 0Z" fill="#e5bbd7"></path></g><g transform="translate(477 206)"><path d="M0 -25L25 0L0 25L-25 0Z" fill="#e5bbd7"></path></g><g transform="translate(162 359)"><path d="M0 -23L23 0L0 23L-23 0Z" fill="#e5bbd7"></path></g><g transform="translate(519 129)"><path d="M0 -22L22 0L0 22L-22 0Z" fill="#e5bbd7"></path></g><g transform="translate(138 121)"><path d="M0 -15L15 0L0 15L-15 0Z" fill="#e5bbd7"></path></g><g transform="translate(299 300)"><path d="M0 -9L9 0L0 9L-9 0Z" fill="#e5bbd7"></path></g><g transform="translate(218 47)"><path d="M0 -8L8 0L0 8L-8 0Z" fill="#e5bbd7"></path></g><g transform="translate(241 357)"><path d="M0 -17L17 0L0 17L-17 0Z" fill="#e5bbd7"></path></g><g transform="translate(521 419)"><path d="M0 -12L12 0L0 12L-12 0Z" fill="#e5bbd7"></path></g></g></svg>